<svg width="1134" height="958" viewBox="0 0 1134 958" fill="none" xmlns="http://www.w3.org/2000/svg">
<g filter="url(#filter0_df_9_4440)">
<path d="M1327.16 537.572C1348.53 657.456 1348.64 780.385 1327.51 900.276C1305.13 1026.45 1250.24 1143.88 1168.72 1239.99C1071.81 1354.9 954.686 1449.41 823.655 1518.4C751.2 1557.57 673.383 1584.88 592.939 1599.38C533.374 1611.48 472.93 1618.32 412.255 1619.85C354.676 1620.47 297.27 1613.15 241.519 1598.09C207.274 1589.96 175.482 1573.13 148.976 1549.1C133.662 1535.64 122.223 1518.01 115.937 1498.19C109.651 1478.36 108.765 1457.12 113.37 1436.81C116.538 1420.7 121.524 1405.05 128.241 1390.17C138.756 1366.39 151.522 1343.75 166.345 1322.61C183.186 1297.57 201.507 1273.81 219.79 1249.83C281.051 1169.69 345.506 1092.27 410.204 1015.02C463.085 951.643 512.657 885.342 558.698 816.409C615.613 731.353 660.688 638.328 692.592 540.093C717.847 462.577 738.209 383.54 756.83 304.161C771.084 241.584 788.364 179.797 808.588 119.037C821.574 80.9974 838.194 44.4153 858.201 9.84462C872.231 -15.8406 891.613 -37.913 914.921 -54.7484C941.882 -73.5042 957.81 -73.9966 983.539 -53.8789C1019.7 -25.8967 1053.5 5.25288 1084.58 39.2303C1087.74 42.1737 1090.45 45.6053 1092.62 49.403C1106.26 73.8577 1122.69 96.5164 1141.52 116.895C1212.76 212.879 1267.15 321.235 1302.16 436.948C1314.31 476.453 1322.06 516.104 1327.16 537.572Z" fill="url(#paint0_linear_9_4440)"/>
</g>
<defs>
<filter id="filter0_df_9_4440" x="0.467056" y="-178.892" width="1422.81" height="1878.78" filterUnits="userSpaceOnUse" color-interpolation-filters="sRGB">
<feFlood flood-opacity="0" result="BackgroundImageFix"/>
<feColorMatrix in="SourceAlpha" type="matrix" values="0 0 0 0 0 0 0 0 0 0 0 0 0 0 0 0 0 0 127 0" result="hardAlpha"/>
<feOffset dx="-30" dy="-30"/>
<feGaussianBlur stdDeviation="40"/>
<feComposite in2="hardAlpha" operator="out"/>
<feColorMatrix type="matrix" values="0 0 0 0 1 0 0 0 0 1 0 0 0 0 1 0 0 0 1 0"/>
<feBlend mode="normal" in2="BackgroundImageFix" result="effect1_dropShadow_9_4440"/>
<feBlend mode="normal" in="SourceGraphic" in2="effect1_dropShadow_9_4440" result="shape"/>
<feGaussianBlur stdDeviation="40" result="effect2_foregroundBlur_9_4440"/>
</filter>
<linearGradient id="paint0_linear_9_4440" x1="558.659" y1="46.6043" x2="752.974" y2="1412.82" gradientUnits="userSpaceOnUse">
<stop stop-color="#E3E0D8"/>
<stop offset="1" stop-color="#272C31"/>
</linearGradient>
</defs>
</svg>
